# xmcd
#
# Track frame offsets:
#	150
#	38338
#	63142
#	104625
#	167250
#	181449
#	246890
#	273321
#	294155
#
# Disc length: 4201 seconds
#
# Revision: 1
# Processed by: cddbd v1.4PL0 Copyright (c) Steve Scherf et al.
# Submitted via: EasyCDDAExtractor 6.0.0.1
#
DISCID=6f106709
DTITLE=AA File - Pathways to Spirituality - Grapevine
DYEAR=1900
DGENRE=
TTITLE0=You are Already Part of a Miracle
TTITLE1=Stepping on Seven
TTITLE2=Breakthrough
TTITLE3=This Word is God or This Word is Love
TTITLE4=A Touch of Wonder
TTITLE5=3rd Step for Older Members
TTITLE6=Secret of Serenity
TTITLE7=We Have Gained a Partner
TTITLE8=Making a Begining
EXTD=
EXTT0=
EXTT1=
EXTT2=
EXTT3=
EXTT4=
EXTT5=
EXTT6=
EXTT7=
EXTT8=
PLAYORDER=
